<?xml version="1.0"?>
<svg xmlns="http://www.w3.org/2000/svg" xmlns:xlink="http://www.w3.org/1999/xlink" version="1.1" viewBox="0 0 224 224" width="64px" height="64px"><g fill="none" fill-rule="nonzero" stroke="none" stroke-width="1" stroke-linecap="butt" stroke-linejoin="miter" stroke-miterlimit="10" stroke-dasharray="" stroke-dashoffset="0" font-family="none" font-weight="none" font-size="none" text-anchor="none" style="mix-blend-mode: normal"><path d="M0,224v-224h224v224z" fill="none"/><path d="M0,112c0,-61.85589 50.14411,-112 112,-112c61.85589,0 112,50.14411 112,112c0,61.85589 -50.14411,112 -112,112c-61.85589,0 -112,-50.14411 -112,-112zM112,219.52c59.38166,0 107.52,-48.13834 107.52,-107.52c0,-59.38166 -48.13834,-107.52 -107.52,-107.52c-59.38166,0 -107.52,48.13834 -107.52,107.52c0,59.38166 48.13834,107.52 107.52,107.52z" fill="#fa8c24"/><g id="Layer_1"><g><g fill="#ffffff"><g><g><g><g><g><g><path d="M206.43306,112c0,-52.14562 -42.28744,-94.43306 -94.43306,-94.43306c-52.14562,0 -94.43306,42.28744 -94.43306,94.43306c0,52.14563 42.28744,94.43306 94.43306,94.43306c52.14563,0 94.43306,-42.28744 94.43306,-94.43306z"/></g></g></g></g></g></g></g><g fill="#fa8c24"><path d="M137.578,154.43969c-0.53288,-0.76125 -1.5225,-1.06575 -2.39794,-0.64706c-9.36338,4.41525 -19.98281,9.09694 -22.07625,9.51563c-0.03806,-0.03806 -0.15225,-0.11419 -0.22837,-0.26644c-0.26644,-0.38062 -0.41869,-0.87544 -0.41869,-1.5225c0,-5.29069 3.99656,-21.39112 11.8755,-47.84456c6.66094,-22.2285 7.42219,-26.83406 7.42219,-28.35656c0,-2.35988 -0.9135,-4.33912 -2.62631,-5.74744c-1.63669,-1.33219 -3.88237,-2.01731 -6.73706,-2.01731c-4.75781,0 -10.23881,1.78894 -16.78556,5.51906c-6.35644,3.57787 -13.47412,9.66787 -21.08662,18.07969c-0.609,0.64706 -0.64706,1.63669 -0.15225,2.35988c0.49481,0.72319 1.44637,0.98963 2.28375,0.68512c2.66437,-1.10381 16.1385,-6.62287 18.11775,-7.84087c1.59862,-0.98962 3.00694,-1.5225 4.14881,-1.5225c0.03806,0 0.07612,0 0.11419,0c0,0.07613 0.03806,0.19031 0.03806,0.34256c0,1.14187 -0.22837,2.55019 -0.72319,4.07269c-11.45681,37.149 -17.052,59.94844 -17.052,69.65437c0,3.42563 0.95156,6.16613 2.81663,8.18344c1.90312,2.05537 4.49138,3.08306 7.65056,3.08306c3.38756,0 7.49831,-1.40831 12.59869,-4.33912c4.91006,-2.81663 12.44644,-9.02081 22.98975,-18.91706c0.64706,-0.68513 0.76125,-1.71281 0.22837,-2.47406z"/><path d="M137.19738,46.76088c-1.86506,-1.90312 -4.263,-2.89275 -7.11769,-2.89275c-3.53981,0 -6.66094,1.40831 -9.21112,4.18688c-2.51213,2.7405 -3.76819,6.05194 -3.76819,9.93431c0,3.045 0.95156,5.59519 2.77856,7.53638c1.86506,1.97925 4.22494,2.96888 7.04156,2.96888c3.42562,0 6.47063,-1.48444 9.135,-4.41525c2.62631,-2.89275 3.9585,-6.24225 3.9585,-10.0485c0,-2.93081 -0.95156,-5.36681 -2.81662,-7.26994z"/></g></g></g><path d="M112,224c-61.85589,0 -112,-50.14411 -112,-112v0c0,-61.85589 50.14411,-112 112,-112v0c61.85589,0 112,50.14411 112,112v0c0,61.85589 -50.14411,112 -112,112z" fill="none"/><path d="M112,219.52c-59.38166,0 -107.52,-48.13834 -107.52,-107.52v0c0,-59.38166 48.13834,-107.52 107.52,-107.52h0c59.38166,0 107.52,48.13834 107.52,107.52v0c0,59.38166 -48.13834,107.52 -107.52,107.52z" fill="none"/><path d="M112,224c-61.85589,0 -112,-50.14411 -112,-112v0c0,-61.85589 50.14411,-112 112,-112v0c61.85589,0 112,50.14411 112,112v0c0,61.85589 -50.14411,112 -112,112z" fill="none"/><path d="M112,219.52c-59.38166,0 -107.52,-48.13834 -107.52,-107.52v0c0,-59.38166 48.13834,-107.52 107.52,-107.52h0c59.38166,0 107.52,48.13834 107.52,107.52v0c0,59.38166 -48.13834,107.52 -107.52,107.52z" fill="none"/></g></svg>
